<?xml version="1.0" encoding="iso-8859-1"?>
<!-- Generator: Adobe Illustrator 19.0.0, SVG Export Plug-In . SVG Version: 6.00 Build 0)  -->
<svg version="1.1" id="Capa_1" xmlns="http://www.w3.org/2000/svg" xmlns:xlink="http://www.w3.org/1999/xlink" x="0px" y="0px"
	 viewBox="0 0 512.001 512.001" style="enable-background:new 0 0 512.001 512.001;" xml:space="preserve">
<path style="fill:#48BA7B;" d="M277.132,196.11c-7.33,8.34-18.07,13.6-30.04,13.6c-22.09,0-40-17.91-40-40
	c0-11.98,5.26-22.72,13.59-30.05l-0.64-0.64c-5.5,6.53-13.74,10.69-22.95,10.69c-16.57,0-30-13.44-30-30
	c0-9.22,4.15-17.46,10.68-22.96c-10.785-10.785-76.464-76.464-86.25-86.25c-4.6,3.99-1.16,0.22-0.58-0.41
	c-37.65,37.67-62.3,83.49-73.95,131.83c-22.13,91.75,9.55,202.61,81.03,274.09c109.17,109.17,294.8,117.17,403.98,8
	C492.951,414.892,285.382,204.473,277.132,196.11z"/>
<path style="fill:#FF4A70;" d="M277.132,196.11c-7.33,8.34-18.07,13.6-30.04,13.6c-22.09,0-40-17.91-40-40
	c0-11.98,5.26-22.72,13.59-30.05l-0.64-0.64c-5.5,6.53-13.74,10.69-22.95,10.69c-16.57,0-30-13.44-30-30
	c0-9.22,4.15-17.46,10.68-22.96l-44.32-44.32c-85.78,85.77-78.78,235.38,7,321.15c41.91,41.91,104.46,71.15,159.69,72.3
	c10.67,0.19,21.36-0.4,31.96-1.76c6.55-0.82,13.06-1.95,19.53-3.38c39.59-8.71,77.22-28.43,107.95-59.16l0.27-0.26L277.132,196.11z"
	/>
<path d="M395.941,374.51c3.9-3.9,3.9-10.23,0-14.14c-3.91-3.9-10.24-3.9-14.14,0c-3.91,3.91-3.91,10.24,0,14.14
	C385.701,378.42,392.031,378.42,395.941,374.51z"/>
<path d="M339.371,317.95c3.9-3.91,3.9-10.24,0-14.15c-3.91-3.9-10.24-3.9-14.14,0c-3.91,3.91-3.91,10.24,0,14.15
	C329.132,321.85,335.461,321.85,339.371,317.95z"/>
<path d="M332.091,443.74c0,0.13,0,0.26,0.01,0.38c0.2,5.35,4.59,9.62,9.99,9.62c5.52,0,10-4.48,10-10c0-1.05-0.16-2.05-0.46-3
	c-1.28-4.06-5.07-7-9.54-7C336.561,433.74,332.091,438.21,332.091,443.74z"/>
<path d="M282.801,366.23c-3.91,3.9-3.91,10.24,0,14.14c3.91,3.91,10.24,3.91,14.14,0c3.91-3.9,3.91-10.24,0-14.14
	C293.041,362.32,286.711,362.32,282.801,366.23z"/>
<path d="M218.231,281.66c-3.9,3.91-3.9,10.24,0,14.14c3.91,3.91,10.24,3.91,14.14,0c3.91-3.9,3.91-10.23,0-14.14
	C228.471,277.76,222.141,277.76,218.231,281.66z"/>
<path d="M186.521,353.38c-3.91,3.9-3.91,10.23,0,14.14c3.9,3.9,10.23,3.9,14.14,0c3.9-3.91,3.9-10.24,0-14.14
	C196.751,349.47,190.421,349.47,186.521,353.38z"/>
<path d="M154.661,215.06c-3.9,3.91-3.9,10.24,0,14.14c3.91,3.91,10.24,3.91,14.15,0c3.9-3.9,3.9-10.23,0-14.14
	C164.901,211.16,158.571,211.16,154.661,215.06z"/>
<path d="M119.521,283.35c-3.91,3.9-3.91,10.23,0,14.14c3.9,3.9,10.23,3.9,14.14,0c3.9-3.91,3.9-10.24,0-14.14
	C129.751,279.44,123.421,279.44,119.521,283.35z"/>
<path d="M128.811,169.2c3.9-3.9,3.9-10.23,0-14.14c-3.91-3.9-10.24-3.9-14.15,0c-3.9,3.91-3.9,10.24,0,14.14
	C118.571,173.11,124.901,173.11,128.811,169.2z"/>
<path d="M187.991,487.896c35.598,14.871,73.195,22.942,111.745,23.988c2.846,0.077,5.682,0.116,8.514,0.116
	c35.896,0,70.651-6.201,103.425-18.466c37.049-13.864,69.818-34.876,97.396-62.453c3.896-3.895,3.907-10.208,0.026-14.117
	c-1.24-1.25-2.447-2.449-2.675-2.675L284.25,189.087c-1.95-1.976-4.636-3.038-7.407-2.973c-2.775,0.08-5.391,1.31-7.224,3.395
	c-5.697,6.483-13.909,10.201-22.528,10.201c-16.542,0-30-13.458-30-30c0-8.624,3.716-16.84,10.196-22.542
	c2.074-1.825,3.301-4.427,3.389-7.188c0.088-2.761-0.97-5.437-2.924-7.39l-0.64-0.64c-1.98-1.98-4.703-3.043-7.498-2.919
	c-2.798,0.12-5.417,1.407-7.222,3.548c-3.818,4.533-9.395,7.132-15.302,7.132c-11.028,0-20-8.972-20-20
	c0-5.918,2.596-11.499,7.123-15.312c2.142-1.804,3.429-4.424,3.548-7.222c0.12-2.798-0.939-5.518-2.919-7.498L140.55,45.386
	c-0.01-0.01-0.018-0.021-0.028-0.031s-0.021-0.018-0.031-0.028L98.593,3.429c-0.084-0.083-0.168-0.165-0.254-0.245
	c-0.08-0.086-0.162-0.171-0.246-0.255c-3.905-3.905-10.237-3.905-14.143,0c-0.097,0.098-0.191,0.195-0.284,0.294
	C46.11,40.873,19.696,88.015,7.27,139.575c-23.227,96.295,10.402,210.228,83.68,283.506
	C118.615,450.746,151.264,472.552,187.991,487.896z M26.713,144.263C37.528,99.388,59.732,58.104,91.156,24.276l28.331,28.331
	c-18.503,20.345-32.813,44.071-42.579,70.68c-10.412,28.369-15.218,58.655-14.285,90.016
	c1.882,63.269,27.672,124.267,70.758,167.353c45.233,45.234,111.445,74.773,168.682,75.254c0.029,0,0.057,0,0.086,0
	c5.483,0,9.952-4.422,9.998-9.916c0.046-5.522-4.393-10.037-9.916-10.083c-52.264-0.44-112.991-27.68-154.708-69.397
	C66.36,285.352,60.882,147.859,133.646,66.767l30.395,30.395c-4.488,6.574-6.949,14.401-6.949,22.549c0,22.056,17.944,40,40,40
	c0.338,0,0.676-0.004,1.013-0.013c-0.668,3.269-1.013,6.622-1.013,10.013c0,27.57,22.43,50,50,50
	c10.759,0,21.135-3.473,29.655-9.752l168.846,171.149c-20.061,18.355-43.098,32.414-68.623,41.825
	c-5.182,1.91-7.833,7.66-5.923,12.842c1.49,4.041,5.314,6.543,9.384,6.543c1.149,0,2.317-0.2,3.458-0.62
	c28.215-10.403,53.649-25.985,75.757-46.346l28.104,28.487c-104.403,96.361-277.291,90.467-382.656-14.9
	C36.557,340.403,5.059,234.039,26.713,144.263z"/>
<g>
</g>
<g>
</g>
<g>
</g>
<g>
</g>
<g>
</g>
<g>
</g>
<g>
</g>
<g>
</g>
<g>
</g>
<g>
</g>
<g>
</g>
<g>
</g>
<g>
</g>
<g>
</g>
<g>
</g>
</svg>
