<?xml version="1.0" encoding="UTF-8" standalone="no"?>
<!DOCTYPE svg PUBLIC "-//W3C//DTD SVG 1.1//EN" "http://www.w3.org/Graphics/SVG/1.1/DTD/svg11.dtd">
<svg version="1.1" xmlns="http://www.w3.org/2000/svg" xmlns:xlink="http://www.w3.org/1999/xlink" preserveAspectRatio="xMidYMid meet" viewBox="0 0 640 640" width="640" height="640"><defs><path d="M85.55 295C138.18 242.63 167.41 213.54 173.26 207.72C183.04 197.98 183.08 182.15 173.34 172.37C163.6 162.58 147.77 162.54 137.99 172.28C124.92 185.28 20.42 289.28 7.36 302.28C7.35 302.29 7.34 302.3 7.33 302.3C-2.43 312.04 -2.46 327.92 7.33 337.7C7.34 337.7 7.35 337.71 7.35 337.72C20.42 350.72 124.92 454.72 137.98 467.72C147.77 477.46 163.6 477.42 173.34 467.64C183.08 457.85 183.04 442.02 173.26 432.28C167.41 426.46 138.17 397.37 85.55 345C403.22 345 579.7 345 615 345C628.81 345 640 333.81 640 320C640 306.19 628.81 295 615 295C544.41 295 367.92 295 85.55 295Z" id="c4B8SJsIOj"></path></defs><g><g><g><use xlink:href="#c4B8SJsIOj" opacity="1" fill="#e07289" fill-opacity="1"></use><g><use xlink:href="#c4B8SJsIOj" opacity="1" fill-opacity="0" stroke="#000000" stroke-width="1" stroke-opacity="0"></use></g></g></g></g></svg>